<?xml version="1.0" encoding="UTF-8" standalone="no"?>
<!-- Created with Inkscape (http://www.inkscape.org/) -->

<svg
   xmlns:dc="http://purl.org/dc/elements/1.1/"
   xmlns:cc="http://creativecommons.org/ns#"
   xmlns:rdf="http://www.w3.org/1999/02/22-rdf-syntax-ns#"
   xmlns:svg="http://www.w3.org/2000/svg"
   xmlns="http://www.w3.org/2000/svg"
   xmlns:xlink="http://www.w3.org/1999/xlink"
   xmlns:sodipodi="http://sodipodi.sourceforge.net/DTD/sodipodi-0.dtd"
   xmlns:inkscape="http://www.inkscape.org/namespaces/inkscape"
   width="512mm"
   height="512mm"
   viewBox="0 0 1814.1732 1814.1732"
   id="svg2"
   version="1.1"
   inkscape:version="0.91 r13725"
   sodipodi:docname="Logo-wp-svg.svg">
  <defs
     id="defs4">
    <linearGradient
       id="linearGradient4204"
       inkscape:collect="always">
      <stop
         id="stop4206"
         offset="0"
         style="stop-color:#ffffff;stop-opacity:1" />
      <stop
         id="stop4208"
         offset="1"
         style="stop-color:#ffffff;stop-opacity:0" />
    </linearGradient>
    <linearGradient
       inkscape:collect="always"
       id="linearGradient4169">
      <stop
         style="stop-color:#1158d0;stop-opacity:1;"
         offset="0"
         id="stop4171" />
      <stop
         style="stop-color:#ffffff;stop-opacity:1"
         offset="1"
         id="stop4173" />
    </linearGradient>
    <linearGradient
       inkscape:collect="always"
       xlink:href="#linearGradient4169"
       id="linearGradient4175"
       x1="777.14282"
       y1="-524.78064"
       x2="1508.5714"
       y2="1892.3622"
       gradientUnits="userSpaceOnUse" />
    <linearGradient
       gradientTransform="translate(3.3386657,764.66818)"
       inkscape:collect="always"
       xlink:href="#linearGradient4204"
       id="linearGradient4175-8"
       x1="1356.6614"
       y1="-1247.6378"
       x2="1202.3756"
       y2="-201.92354"
       gradientUnits="userSpaceOnUse" />
  </defs>
  <sodipodi:namedview
     id="base"
     pagecolor="#ffffff"
     bordercolor="#666666"
     borderopacity="1.0"
     inkscape:pageopacity="0.0"
     inkscape:pageshadow="2"
     inkscape:zoom="0.35"
     inkscape:cx="418.62715"
     inkscape:cy="918.7982"
     inkscape:document-units="px"
     inkscape:current-layer="layer1"
     showgrid="false"
     fit-margin-top="0"
     fit-margin-left="0"
     fit-margin-right="0"
     fit-margin-bottom="0"
     inkscape:window-width="1848"
     inkscape:window-height="1051"
     inkscape:window-x="72"
     inkscape:window-y="0"
     inkscape:window-maximized="1" />
  <metadata
     id="metadata7">
    <rdf:RDF>
      <cc:Work
         rdf:about="">
        <dc:format>image/svg+xml</dc:format>
        <dc:type
           rdf:resource="http://purl.org/dc/dcmitype/StillImage" />
        <dc:title></dc:title>
      </cc:Work>
    </rdf:RDF>
  </metadata>
  <g
     inkscape:label="Ebene 1"
     inkscape:groupmode="layer"
     id="layer1"
     transform="translate(0,761.81102)"
     style="display:inline">
    <g
       id="g4214">
      <path
         inkscape:connector-curvature="0"
         id="path3344"
         d="m 1585.038,-1018.9774 a 565.33759,565.33759 0 0 0 -331.5695,108.29997 724.75393,724.75393 0 0 0 -40.4019,-2.02211 724.75393,724.75393 0 0 0 -400.33948,121.15306 619.95243,599.28734 0 0 0 -451.35644,-189.05319 619.95243,599.28734 0 0 0 -619.95243,599.28735 619.95243,599.28734 0 0 0 121.18334,354.755261 A 797.08171,797.08171 0 0 0 -299.91191,454.1462 797.08171,797.08171 0 0 0 497.17094,1251.229 797.08171,797.08171 0 0 0 932.03568,1121.8644 665.71081,665.71081 0 0 0 1366.5795,1283.7018 665.71081,665.71081 0 0 0 2032.2898,617.99167 665.71081,665.71081 0 0 0 1848.982,159.70918 724.75393,724.75393 0 0 0 1910.0933,8.0569509 565.33759,565.33759 0 0 0 2150.3774,-453.6401 565.33759,565.33759 0 0 0 1585.038,-1018.9774 Z"
         style="opacity:1;fill:url(#linearGradient4175);fill-opacity:1;stroke:#ffffff;stroke-width:5.49170446;stroke-linejoin:miter;stroke-miterlimit:4;stroke-dasharray:none;stroke-opacity:0.47963801" />
      <path
         id="path3344-8"
         transform="translate(0,-761.81102)"
         d="m 1588.377,-254.30859 a 565.33759,565.33759 0 0 0 -331.5704,108.29882 724.75393,724.75393 0 0 0 -40.4004,-2.02148 A 724.75393,724.75393 0 0 0 816.06641,-26.878906 619.95243,599.28734 0 0 0 364.70898,-215.93164 619.95243,599.28734 0 0 0 -255.24219,383.35547 619.95243,599.28734 0 0 0 -134.06055,738.11133 797.08171,797.08171 0 0 0 -272.79688,1028.1934 1360,731.42859 0 0 1 900,665.60156 1360,731.42859 0 0 1 1871.0723,885.16992 724.75393,724.75393 0 0 0 1913.4316,772.72461 565.33759,565.33759 0 0 0 2153.7168,311.02734 565.33759,565.33759 0 0 0 1588.377,-254.30859 Z"
         style="opacity:1;fill:url(#linearGradient4175-8);fill-opacity:1;stroke:#ffffff;stroke-width:5.49170446;stroke-linejoin:miter;stroke-miterlimit:4;stroke-dasharray:none;stroke-opacity:0.42081448"
         inkscape:connector-curvature="0" />
    </g>
    <g
       transform="translate(48.571429,-527.52531)"
       style="font-style:normal;font-variant:normal;font-weight:normal;font-stretch:normal;font-size:225px;line-height:125%;font-family:'Opus Std';-inkscape-font-specification:'Opus Std';letter-spacing:0px;word-spacing:0px;display:inline;fill:#ffffff;fill-opacity:1;stroke:#000000;stroke-width:5;stroke-linecap:butt;stroke-linejoin:miter;stroke-miterlimit:4;stroke-dasharray:none;stroke-opacity:1"
       id="flowRoot4238">
      <path
         d="m 111.38867,270.651 17.57813,0 0,-22.38281 -14.41407,0 c -8.08593,0 -13.59375,-1.64063 -16.289058,-4.92188 -2.695313,-3.39843 -4.101563,-10.66406 -4.101563,-21.91406 l 0,-24.02344 c 0,-12.77343 -1.875,-21.91406 -5.742187,-27.1875 -3.867188,-5.27343 -10.664063,-8.78906 -20.507813,-10.42968 9.84375,-1.52344 16.640625,-4.80469 20.507813,-10.07813 3.867187,-5.27344 5.742187,-14.29687 5.742187,-27.1875 l 0,-24.492185 c 0,-11.132813 1.40625,-18.398438 4.101563,-21.679688 2.695308,-3.28125 8.203128,-4.921875 16.289058,-4.921875 l 14.41407,0 0,-22.265625 -17.57813,0 c -19.453123,0 -32.460936,2.8125 -39.023436,8.554688 -6.679687,5.742187 -9.960937,17.34375 -9.960937,34.570312 l 0,25.195313 c 0,11.83594 -2.109375,20.03906 -6.210938,24.49219 -4.21875,4.45312 -11.835937,6.67968 -22.734375,6.67968 l -10.78125,0 0,22.38282 10.78125,0 c 10.429688,0 18.515625,2.10937 22.734375,6.67968 4.335938,4.6875 6.210938,13.59375 6.210938,24.49219 l 0,25.19531 c 0,17.22657 3.28125,28.82813 9.960937,34.57032 6.5625,5.74218 19.570313,8.67187 39.023436,8.67187 z"
         style="font-style:normal;font-variant:normal;font-weight:bold;font-stretch:normal;font-size:240px;font-family:Hack;-inkscape-font-specification:'Hack Bold';fill:#ffffff;fill-opacity:1;stroke:#000000;stroke-width:5;stroke-miterlimit:4;stroke-dasharray:none;stroke-opacity:1"
         id="path4678" />
      <path
         d="m 182.87305,421.5885 30,0 0,-65.03906 -30,0 0,65.03906 z m 60,0 30,0 0,-65.03906 -30,0 0,65.03906 z"
         style="font-style:normal;font-variant:normal;font-weight:bold;font-stretch:normal;font-size:240px;font-family:Hack;-inkscape-font-specification:'Hack Bold';fill:#ffffff;fill-opacity:1;stroke:#000000;stroke-width:5;stroke-miterlimit:4;stroke-dasharray:none;stroke-opacity:1"
         id="path4680" />
      <path
         d="m 390.06055,568.89319 c 9.49218,0 17.8125,-1.17188 24.60937,-3.16406 6.44531,-1.875 14.17969,-5.27344 20.625,-9.72657 l -10.78125,-20.625 c -5.39062,3.63282 -11.25,6.5625 -16.875,8.32032 -5.97656,1.875 -12.53906,2.69531 -18.75,2.69531 -17.92969,0 -34.92187,-6.79688 -46.99219,-21.21094 -10.78125,-12.89062 -17.69531,-32.34375 -17.69531,-57.42187 0,-23.20313 5.85938,-42.53907 15.35156,-55.78125 9.60938,-13.47657 23.4375,-21.32813 40.19532,-21.32813 10.3125,0 18.75,2.92969 24.60937,8.67188 5.74219,5.74218 8.67188,13.94531 8.67188,24.60937 l 0,4.80469 c -2.46094,-3.39844 -6.21094,-6.5625 -10.3125,-8.4375 -4.33594,-1.99219 -9.60938,-2.8125 -14.88282,-2.8125 -12.53906,0 -22.96875,4.57031 -30.82031,13.71094 -7.61719,8.90625 -11.71875,20.97656 -11.71875,36.32812 0,15.23438 3.98438,27.42188 11.83594,36.67969 7.85156,9.25781 18.16406,13.82812 30.82031,13.82812 5.74219,0 10.54688,-0.9375 14.64844,-2.92968 3.63281,-1.75782 7.03125,-4.33594 10.42969,-9.02344 l 0,9.60937 22.96875,0 0,-90.23437 c 0,-17.69531 -4.92188,-31.75781 -14.76563,-42.07031 -9.375,-9.72657 -22.61719,-15.35157 -41.01562,-15.35157 -23.20313,0 -42.77344,9.02344 -57.42188,27.1875 -14.64844,18.16407 -21.91406,42.53907 -21.91406,72.30469 0,31.40625 8.08594,55.89844 24.375,74.0625 16.28906,18.16406 38.32031,27.30469 64.80469,27.30469 z m 1.75781,-72.89063 c -7.73438,0 -12.65625,-2.92968 -16.28906,-7.5 -3.98438,-5.03906 -5.97657,-11.95312 -5.97657,-20.85937 0,-8.78906 1.99219,-15.70313 5.97657,-20.74219 3.63281,-4.57031 8.55468,-7.5 16.28906,-7.5 6.91406,0 12.42187,2.46094 16.40625,7.5 3.98437,5.03906 5.97656,11.95313 5.97656,20.74219 0,8.90625 -1.99219,15.82031 -5.97656,20.85937 -3.98438,5.03907 -9.49219,7.5 -16.40625,7.5 z"
         style="font-style:normal;font-variant:normal;font-weight:bold;font-stretch:normal;font-size:240px;font-family:Hack;-inkscape-font-specification:'Hack Bold';fill:#ff7100;fill-opacity:1"
         id="path4682" />
      <path
         d="m 497.4043,384.67444 27.30468,0 c 2.22657,0 3.51563,-1.28906 3.51563,-3.51563 l 0,-33.04687 c 0,-2.22656 -1.28906,-3.51563 -3.51563,-3.51563 l -27.30468,0 c -2.22657,0 -3.51563,1.28907 -3.51563,3.51563 l 0,33.04687 c 0,2.22657 1.28906,3.51563 3.51563,3.51563 z m 42.30468,148.24219 37.03125,0 0,-26.36719 -27.42187,0 c -7.61719,0 -13.125,-2.10938 -16.28906,-6.44531 -3.16407,-4.33594 -4.80469,-11.60157 -4.80469,-21.91407 l 0,-77.92968 -62.10938,0 0,26.36718 27.77344,0 0,51.5625 c 0,19.57032 3.51563,33.63282 10.66406,42.07032 7.14844,8.4375 18.86719,12.65625 35.15625,12.65625 z"
         style="font-style:normal;font-variant:normal;font-weight:bold;font-stretch:normal;font-size:240px;font-family:Hack;-inkscape-font-specification:'Hack Bold';fill:#ff7100;fill-opacity:1"
         id="path4684" />
      <path
         d="m 646.58398,534.90881 c 8.20313,0 15,-1.875 20.85938,-5.74218 5.625,-3.75 10.54687,-9.49219 14.17969,-17.10938 l 3.39843,19.45313 30.82032,0 0,-182.34375 -34.21875,0 0,69.72656 c -4.21875,-7.26563 -9.14063,-12.77344 -14.64844,-16.40625 -5.85938,-3.86719 -12.30469,-5.39063 -19.6875,-5.39063 -15.35156,0 -27.1875,6.5625 -35.15625,17.8125 -8.4375,11.83594 -12.65625,29.0625 -12.65625,50.97657 0,21.91406 4.21875,39.25781 12.42187,51.09375 8.32032,11.95312 20.27344,17.92968 34.6875,17.92968 z m 11.01563,-28.125 c -7.38281,0 -13.24219,-3.63281 -17.46094,-10.78125 -4.21875,-7.14843 -6.32812,-17.10937 -6.32812,-29.76562 0,-12.65625 2.10937,-22.61719 6.32812,-29.76563 4.21875,-7.14843 10.07813,-10.78125 17.46094,-10.78125 7.38281,0 13.24219,3.63282 17.57812,10.78125 4.33594,7.14844 6.44532,17.10938 6.44532,29.76563 0,12.65625 -2.10938,22.61719 -6.44532,29.76562 -4.33593,7.14844 -10.19531,10.78125 -17.57812,10.78125 z"
         style="font-style:normal;font-variant:normal;font-weight:bold;font-stretch:normal;font-size:240px;font-family:Hack;-inkscape-font-specification:'Hack Bold';fill:#ff7100;fill-opacity:1"
         id="path4686" />
      <path
         d="m 760.37305,421.5885 30,0 0,-65.03906 -30,0 0,65.03906 z m 60,0 30,0 0,-65.03906 -30,0 0,65.03906 z"
         style="font-style:normal;font-variant:normal;font-weight:bold;font-stretch:normal;font-size:240px;font-family:Hack;-inkscape-font-specification:'Hack Bold';fill:#ffffff;fill-opacity:1;stroke:#000000;stroke-width:5;stroke-miterlimit:4;stroke-dasharray:none;stroke-opacity:1"
         id="path4688" />
      <path
         d="m 950.2168,449.36194 c 5.85937,0 11.25,-2.34375 14.88281,-5.97656 3.63281,-3.63282 5.97656,-9.14063 5.97656,-15.70313 0,-6.5625 -2.34375,-11.83594 -5.97656,-15.46875 -3.98438,-3.98437 -9.14063,-5.97656 -14.64844,-5.97656 -5.50781,0 -10.89844,1.99219 -14.88281,5.97656 -3.51563,3.51563 -5.97656,8.90625 -5.97656,15.58594 0,5.85937 1.875,11.36719 6.09375,15.58594 3.39843,3.39843 8.4375,5.97656 14.53125,5.97656 z m 0.11718,83.90625 c 5.625,0 10.78125,-1.99219 14.76563,-5.97656 3.75,-3.75 5.97656,-9.02344 5.97656,-15.58594 0,-6.67969 -2.34375,-11.95313 -5.97656,-15.58594 -3.98438,-3.98437 -9.14063,-5.97656 -14.76563,-5.97656 -5.74218,0 -10.66406,1.99219 -14.64843,5.97656 -4.10157,4.10156 -6.09375,9.25781 -6.09375,15.58594 0,6.32812 1.99218,11.48437 6.09375,15.58594 3.98437,3.98437 8.90625,5.97656 14.64843,5.97656 z"
         style="font-style:normal;font-variant:normal;font-weight:bold;font-stretch:normal;font-size:240px;font-family:Hack;-inkscape-font-specification:'Hack Bold';fill:#ffffff;fill-opacity:1;stroke:#000000;stroke-width:5;stroke-miterlimit:4;stroke-dasharray:none;stroke-opacity:1"
         id="path4690" />
      <path
         d="m 182.87305,721.5885 30,0 0,-65.03906 -30,0 0,65.03906 z m 60,0 30,0 0,-65.03906 -30,0 0,65.03906 z"
         style="font-style:normal;font-variant:normal;font-weight:bold;font-stretch:normal;font-size:240px;font-family:Hack;-inkscape-font-specification:'Hack Bold';fill:#ffffff;fill-opacity:1;stroke:#000000;stroke-width:5;stroke-miterlimit:4;stroke-dasharray:none;stroke-opacity:1"
         id="path4692" />
      <path
         d="m 323.9668,831.51038 32.57812,0 15.82031,-68.20313 15.9375,68.20313 32.57813,0 23.78906,-131.25 -28.59375,0 -15.82031,100.54687 -13.94531,-66.21094 -27.77344,0 -14.17969,66.21094 -15.58594,-100.54687 -28.59375,0 23.78907,131.25 z"
         style="font-style:normal;font-variant:normal;font-weight:bold;font-stretch:normal;font-size:240px;font-family:Hack;-inkscape-font-specification:'Hack Bold';fill:#00ff67;fill-opacity:1"
         id="path4694" />
      <path
         d="m 462.13086,881.43225 34.21875,0 0,-68.4375 c 4.10156,7.38281 9.72656,13.125 14.64844,16.40625 5.97656,3.98438 12.42187,5.50781 19.6875,5.50781 14.17968,0 26.71875,-5.74218 35.27343,-17.8125 7.96875,-11.25 12.53907,-28.24218 12.53907,-50.97656 0,-21.32812 -3.98438,-38.90625 -12.42188,-51.09375 -8.32031,-11.95312 -20.27344,-17.92969 -34.80469,-17.92969 -8.08593,0 -14.88281,1.875 -20.74218,5.74219 -5.85938,3.86719 -10.54688,9.49219 -14.17969,17.10938 l -3.39844,-19.6875 -30.82031,0 0,181.17187 z m 58.24219,-75.11719 c -7.38282,0 -13.24219,-3.63281 -17.57813,-10.78125 -4.33594,-7.14843 -6.44531,-17.10937 -6.44531,-29.76562 0,-12.65625 2.10937,-22.61719 6.44531,-29.76563 4.33594,-7.14843 10.19531,-10.78125 17.57813,-10.78125 7.38281,0 13.24218,3.63282 17.46093,10.78125 4.21875,7.14844 6.32813,17.10938 6.32813,29.76563 0,12.65625 -2.10938,22.61719 -6.32813,29.76562 -4.21875,7.14844 -10.07812,10.78125 -17.46093,10.78125 z"
         style="font-style:normal;font-variant:normal;font-weight:bold;font-stretch:normal;font-size:240px;font-family:Hack;-inkscape-font-specification:'Hack Bold';fill:#00ff67;fill-opacity:1"
         id="path4696" />
      <path
         d="m 614.82617,778.19006 92.69531,0 0,-34.10156 -92.69531,0 0,34.10156 z"
         style="font-style:normal;font-variant:normal;font-weight:bold;font-stretch:normal;font-size:240px;font-family:Hack;-inkscape-font-specification:'Hack Bold';fill:#00ff67;fill-opacity:1"
         id="path4698" />
      <path
         d="m 805.25586,684.67444 27.30469,0 c 2.22656,0 3.51562,-1.28906 3.51562,-3.51563 l 0,-33.04687 c 0,-2.22656 -1.28906,-3.51563 -3.51562,-3.51563 l -27.30469,0 c -2.22656,0 -3.51563,1.28907 -3.51563,3.51563 l 0,33.04687 c 0,2.22657 1.28907,3.51563 3.51563,3.51563 z m -52.03125,196.52344 37.03125,0 c 16.64062,0 28.47656,-4.45313 35.27344,-12.53907 7.03125,-8.4375 10.54687,-22.5 10.54687,-42.1875 l 0,-126.21093 -69.14062,0 0,26.36718 34.80468,0 0,99.84375 c 0,10.3125 -1.64062,17.57813 -4.80468,21.91407 -3.16407,4.33593 -8.67188,6.44531 -16.28907,6.44531 l -27.42187,0 0,26.36719 z"
         style="font-style:normal;font-variant:normal;font-weight:bold;font-stretch:normal;font-size:240px;font-family:Hack;-inkscape-font-specification:'Hack Bold';fill:#00ff67;fill-opacity:1"
         id="path4700" />
      <path
         d="m 949.86523,834.90881 c 17.10938,0 30.70313,-3.39843 39.60938,-10.19531 8.78906,-6.67969 13.24219,-16.875 13.24219,-30.35156 0,-10.78125 -2.8125,-20.15625 -8.67188,-26.83594 -5.85937,-6.67969 -15.23437,-11.36719 -27.53906,-14.29687 l -9.84375,-2.34375 -1.28906,-0.35157 c -17.34375,-4.10156 -25.07813,-8.78906 -25.07813,-15.82031 0,-3.63281 1.99219,-7.14844 5.97656,-9.375 4.10157,-2.34375 9.84375,-3.28125 16.75782,-3.28125 7.61718,0 14.88281,1.17188 21.09375,3.04688 6.21093,1.875 13.35937,5.15625 19.6875,9.25781 l 0,-30 c -6.44532,-2.34375 -15.11719,-4.45313 -21.44532,-5.50781 -6.32812,-1.05469 -14.64843,-1.75782 -22.14843,-1.75782 -16.64063,0 -29.53125,3.51563 -38.67188,10.54688 -9.14062,7.03125 -13.71094,16.875 -13.71094,29.76562 0,10.42969 3.04688,18.86719 9.02344,25.19532 5.97656,6.32812 15.58594,11.01562 28.71094,13.94531 l 9.49219,2.10937 c 10.54687,2.34375 16.99218,4.80469 20.74218,7.61719 3.75,2.8125 4.57032,5.74219 4.57032,9.25781 0,5.50782 -2.10938,8.55469 -6.21094,10.89844 -4.21875,2.34375 -10.19531,3.51563 -17.92969,3.51563 -7.85156,0 -15.23437,-1.17188 -23.08594,-3.39844 -7.85156,-2.22656 -15.35156,-5.39063 -23.20312,-9.84375 l 0,30 c 8.55469,2.69531 17.34375,4.92187 25.19531,6.21094 7.85156,1.28906 16.875,1.99218 24.72656,1.99218 z"
         style="font-style:normal;font-variant:normal;font-weight:bold;font-stretch:normal;font-size:240px;font-family:Hack;-inkscape-font-specification:'Hack Bold';fill:#00ff67;fill-opacity:1"
         id="path4702" />
      <path
         d="m 1094.3574,834.90881 c 18.9844,0 34.1016,-6.91406 44.4141,-18.63281 10.7812,-12.30469 16.289,-29.41406 16.289,-50.27344 0,-22.03125 -6.2109,-39.02343 -16.4062,-50.50781 -10.1953,-11.48437 -25.3125,-18.39844 -44.4141,-18.39844 -18.2812,0 -33.5156,6.32813 -44.2968,18.51563 -10.7813,12.1875 -16.4063,29.53125 -16.4063,50.27344 0,20.50781 5.5078,38.20312 16.4063,50.50781 9.7265,11.01562 24.6093,18.51562 44.414,18.51562 z m -0.1172,-27.89062 c -8.0859,0 -14.7656,-3.75 -19.3359,-10.78125 -4.6875,-7.26563 -7.0313,-17.57813 -7.0313,-30.35156 0,-12.77344 2.3438,-22.85157 7.0313,-30.11719 4.3359,-6.67969 10.6641,-10.78125 19.3359,-10.78125 7.9688,0 14.6485,3.39844 19.4532,10.78125 4.6875,7.26562 7.0312,17.34375 7.0312,30.11719 0,12.77343 -2.3437,23.08593 -7.0312,30.35156 -4.6875,7.14844 -11.3672,10.78125 -19.4532,10.78125 z"
         style="font-style:normal;font-variant:normal;font-weight:bold;font-stretch:normal;font-size:240px;font-family:Hack;-inkscape-font-specification:'Hack Bold';fill:#00ff67;fill-opacity:1"
         id="path4704" />
      <path
         d="m 1186.584,831.51038 34.1015,0 0,-75.11719 c 0,-10.66406 1.9922,-17.8125 5.3907,-23.08594 3.5156,-5.50781 8.2031,-8.32031 14.8828,-8.32031 5.625,0 10.1953,1.99219 12.8906,6.09375 2.6953,4.10156 3.9844,11.01562 3.9844,20.50781 l 0,79.92188 34.1015,0 0,-85.19532 c 0,-16.28906 -3.164,-28.59375 -9.4921,-36.91406 -6.3282,-8.20312 -15.8204,-12.30469 -28.0079,-12.30469 -8.5546,0 -15.4687,1.99219 -21.3281,5.97657 -5.8594,3.98437 -9.9609,9.60937 -12.4219,16.875 l -3.3984,-19.6875 -30.7031,0 0,131.25 z"
         style="font-style:normal;font-variant:normal;font-weight:bold;font-stretch:normal;font-size:240px;font-family:Hack;-inkscape-font-specification:'Hack Bold';fill:#00ff67;fill-opacity:1"
         id="path4706" />
      <path
         d="m 1403.1465,832.44788 37.0312,0 0,-26.36719 -27.4218,0 c -7.6172,0 -13.125,-2.10938 -16.2891,-6.44531 -3.1641,-4.33594 -4.8047,-11.60157 -4.8047,-21.91407 l 0,-128.55468 -69.1406,0 0,26.36718 34.8047,0 0,102.1875 c 0,19.57032 3.5156,33.63282 10.664,42.07032 7.1485,8.4375 18.8672,12.65625 35.1563,12.65625 z"
         style="font-style:normal;font-variant:normal;font-weight:bold;font-stretch:normal;font-size:240px;font-family:Hack;-inkscape-font-specification:'Hack Bold';fill:#00ff67;fill-opacity:1"
         id="path4708" />
      <path
         d="m 1512.834,834.90881 c 8.2031,0 15,-1.875 20.8594,-5.74218 5.625,-3.75 10.5468,-9.49219 14.1796,-17.10938 l 3.3985,19.45313 30.8203,0 0,-182.34375 -34.2188,0 0,69.72656 c -4.2187,-7.26563 -9.1406,-12.77344 -14.6484,-16.40625 -5.8594,-3.86719 -12.3047,-5.39063 -19.6875,-5.39063 -15.3516,0 -27.1875,6.5625 -35.1562,17.8125 -8.4375,11.83594 -12.6563,29.0625 -12.6563,50.97657 0,21.91406 4.2188,39.25781 12.4219,51.09375 8.3203,11.95312 20.2734,17.92968 34.6875,17.92968 z m 11.0156,-28.125 c -7.3828,0 -13.2422,-3.63281 -17.4609,-10.78125 -4.2188,-7.14843 -6.3282,-17.10937 -6.3282,-29.76562 0,-12.65625 2.1094,-22.61719 6.3282,-29.76563 4.2187,-7.14843 10.0781,-10.78125 17.4609,-10.78125 7.3828,0 13.2422,3.63282 17.5781,10.78125 4.336,7.14844 6.4453,17.10938 6.4453,29.76563 0,12.65625 -2.1093,22.61719 -6.4453,29.76562 -4.3359,7.14844 -10.1953,10.78125 -17.5781,10.78125 z"
         style="font-style:normal;font-variant:normal;font-weight:bold;font-stretch:normal;font-size:240px;font-family:Hack;-inkscape-font-specification:'Hack Bold';fill:#00ff67;fill-opacity:1"
         id="path4710" />
      <path
         d="m 1626.623,721.5885 30,0 0,-65.03906 -30,0 0,65.03906 z m 60,0 30,0 0,-65.03906 -30,0 0,65.03906 z"
         style="font-style:normal;font-variant:normal;font-weight:bold;font-stretch:normal;font-size:240px;font-family:Hack;-inkscape-font-specification:'Hack Bold';fill:#ffffff;fill-opacity:1;stroke:#000000;stroke-width:5;stroke-miterlimit:4;stroke-dasharray:none;stroke-opacity:1"
         id="path4712" />
      <path
         d="m 38.380859,1170.651 17.578125,0 c 19.335938,0 32.34375,-2.9297 38.90625,-8.6719 6.445316,-5.7422 9.726566,-17.3437 9.726566,-34.5703 l 0,-25.1953 c 0,-11.7187 2.10937,-19.8047 6.44531,-24.375 4.21875,-4.5703 11.83594,-6.7969 22.85156,-6.7969 l 10.78125,0 0,-22.3828 -10.78125,0 c -11.71875,0 -18.75,-2.4609 -22.85156,-6.7969 -4.10156,-4.3359 -6.44531,-11.7187 -6.44531,-24.375 l 0,-25.19527 c 0,-17.22657 -3.28125,-28.82813 -9.726566,-34.57032 -6.5625,-5.74218 -19.570312,-8.55468 -38.90625,-8.55468 l -17.578125,0 0,22.26562 14.179688,0 c 7.5,0 13.59375,1.40625 16.523437,5.03906 2.695313,3.39844 4.101563,10.54688 4.101563,21.5625 l 0,24.49219 c 0,12.8906 1.875,21.9141 5.742187,27.1875 3.75,5.2734 10.546875,8.5547 20.390625,10.0781 -9.140625,1.5235 -16.40625,4.9219 -20.390625,10.4297 -3.867187,5.2735 -5.742187,14.4141 -5.742187,27.1875 l 0,24.0235 c 0,11.1328 -1.40625,18.3984 -4.21875,21.7968 -2.8125,3.3985 -8.320313,5.0391 -16.40625,5.0391 l -14.179688,0 0,22.3828 z"
         style="font-style:normal;font-variant:normal;font-weight:bold;font-stretch:normal;font-size:240px;font-family:Hack;-inkscape-font-specification:'Hack Bold';fill:#ffffff;fill-opacity:1;stroke:#000000;stroke-width:5;stroke-miterlimit:4;stroke-dasharray:none;stroke-opacity:1"
         id="path4714" />
    </g>
  </g>
</svg>
